<svg xmlns="http://www.w3.org/2000/svg" viewBox="0 0 991.6 485.09"><defs><style>.cls-1{fill:#fff;}.cls-2{fill:#23414e;}</style></defs><title>logo</title><g id="Layer_2" data-name="Layer 2"><g id="Layer_1-2" data-name="Layer 1"><path class="cls-1" d="M100,301.36l45.24-120.29q5.08-13.89,11.18-19.65a23,23,0,0,1,16.43-6.27,27.16,27.16,0,0,1,17.45,6.27q9.66,7.8,9.65,19.49,0,6.61-5.08,19.31L126.22,373q-4.75,12.2-10,16.43a26.44,26.44,0,0,1-16.77,5.42q-17.12,0-24.4-18.13l-70-176.53Q0,187.69,0,180.74q0-13.21,12-21a26.87,26.87,0,0,1,15.08-4.57,23,23,0,0,1,16.44,6.27q6.1,5.76,11.18,19.65Z"/><path class="cls-2" d="M284,295.94v62.18q0,15.08-3.56,22.19a22.64,22.64,0,0,1-9.4,9.49,27.08,27.08,0,0,1-13.64,3.73,26.63,26.63,0,0,1-13.55-3.73,23.91,23.91,0,0,1-9.49-9.49q-3.56-7.12-3.56-22.19V197.34a113.6,113.6,0,0,1,.68-15.08,28.35,28.35,0,0,1,11.18-18q7.45-5.42,20.33-5.42h53.54q35.41,0,57.09,18,24.06,20,24.06,53.7,0,29.48-18,46.76a55.2,55.2,0,0,1-22.87,13.39q-5.76,1.7-13.39,3.39l45.07,49.81q12.71,14.06,12.71,23.89A26.4,26.4,0,0,1,374.86,394q-9.49,0-17.45-7.29a84.64,84.64,0,0,1-8.3-9.32ZM284,259h33q13.21,0,21-7.79a24.76,24.76,0,0,0,7.63-18.13,26.33,26.33,0,0,0-10-21.18q-8.13-6.77-19.82-6.78H284Z"/><path class="cls-2" d="M540.31,153.12a112.86,112.86,0,0,1,61.67,18q29,18.47,41.84,51.16,9.15,23.55,9.15,52,0,59.3-38.12,94Q584.52,395.9,539,395.9q-51.17,0-83.19-34.05-31.51-33.37-31.51-87.25,0-60.31,37.78-93.18Q494.73,153.12,540.31,153.12Zm-1.87,47.44a52.52,52.52,0,0,0-21.85,4.91A54.08,54.08,0,0,0,498.12,219Q481,238.34,481,273.24q0,33.89,15.93,54.89A49,49,0,0,0,515.4,343a54.35,54.35,0,0,0,23.72,5.42q23.55,0,38.29-16.26,18.81-21,18.81-57.6,0-36.09-17.11-55.91Q563.52,200.56,538.44,200.56Z"/><path class="cls-2" d="M791.48,153.12a115.93,115.93,0,0,1,41.34,7.12q26.6,10,26.6,30.16a25.53,25.53,0,0,1-5.08,15.75q-5.93,7.62-16.44,7.63-6.27,0-19.48-5.25a74.74,74.74,0,0,0-27.78-5.76q-23.89,0-38.46,14.4-20,19.82-20,58.28,0,37.78,19.65,56.25,15.42,14.4,39,14.4,13.55,0,21.35-3.56l15.76-6.95a30.3,30.3,0,0,1,12-2.71q9.15,0,15.59,8a24,24,0,0,1,5.76,16.09q0,15.93-16.43,25.75-22,13.21-54,13.21-48.62,0-79.79-29.82-35.58-34.22-35.58-91,0-28,9.06-51.67T710.16,184Q742.86,153.12,791.48,153.12Z"/><path class="cls-2" d="M87.53,473.41H66l-1.35,4.87q-1.77,6.65-5.73,6.65a8.89,8.89,0,0,1-4.82-1.32,5.2,5.2,0,0,1-2.48-3.81,12.36,12.36,0,0,1,.51-4l15.12-41.61A11.45,11.45,0,0,1,71,428.91a9.53,9.53,0,0,1,11.63,0,11.37,11.37,0,0,1,3.68,5.26l15.12,41.61a12.76,12.76,0,0,1,.51,4,5,5,0,0,1-2.41,3.8,9,9,0,0,1-4.91,1.34,4.3,4.3,0,0,1-3.26-1.6,9.23,9.23,0,0,1-2-3.7ZM83.67,461.9l-6.81-21.37L70,461.9Z"/><path class="cls-2" d="M114.85,477.79V434.31a7.66,7.66,0,0,1,1.73-5.08,5.85,5.85,0,0,1,4.74-2.06,5.76,5.76,0,0,1,4.7,2.06,7.72,7.72,0,0,1,1.7,5.08v43.48a7.73,7.73,0,0,1-1.69,5.09,5.77,5.77,0,0,1-4.71,2.05,5.87,5.87,0,0,1-4.72-2.06A7.6,7.6,0,0,1,114.85,477.79Z"/><path class="cls-1" d="M169.62,426.87h31.55v7H177.65v18.81h20v7h-20v24.49h-8Z"/><path class="cls-1" d="M243.51,425.9a28.86,28.86,0,0,1,29.36,29.19c0,16.87-12.81,30-29.36,30s-29.43-13.14-29.43-30C214.07,438.63,227,425.9,243.51,425.9Zm0,51.82c11.68,0,21.08-9.73,21.08-22.63,0-12.49-9.41-21.9-21.08-21.9s-21.16,9.41-21.16,21.9C222.34,468,231.83,477.71,243.51,477.71Z"/><path class="cls-1" d="M290.63,426.87h17.52c6,0,8.51.49,10.7,1.3,5.84,2.19,9.65,7.95,9.65,15.49,0,7.3-4.05,13.46-10.3,15.49v.16a16.76,16.76,0,0,1,1.7,2.6l12.16,22.22H323l-12.08-22.79H298.66v22.79h-8Zm19.54,27.49c6.24,0,10.14-4,10.14-10.38,0-4.21-1.62-7.22-4.54-8.84-1.54-.81-3.41-1.3-7.87-1.3h-9.24v20.52Z"/><path class="cls-1" d="M375.64,426.87h33.25v7H383.67v17.92h20.52v7H383.67v18.41h26.6v7H375.64Z"/><path class="cls-1" d="M428.19,426.87h7.95l25.46,37.22c2.11,3.08,4.79,8.27,4.79,8.27h.16s-.57-5.11-.57-8.27V426.87h8v57.25h-7.87L440.6,447c-2.11-3.16-4.79-8.35-4.79-8.35h-.16s.57,5.11.57,8.35v37.14h-8Z"/><path class="cls-1" d="M521.06,425.9c13.7,0,20.84,6.89,20.84,6.89l-4.06,6a26.35,26.35,0,0,0-16.14-5.6c-13.46,0-21.57,9.81-21.57,22.06,0,13.3,9.08,22.46,21.08,22.46,9.89,0,16.22-7.14,16.22-7.14v-8.27h-9.33v-7h16.62v28.79h-7.06v-3.57c0-1.22.08-2.43.08-2.43h-.16a24.66,24.66,0,0,1-17.6,7c-15.41,0-28.14-12.16-28.14-29.68C491.86,438.87,504.35,425.9,521.06,425.9Z"/><path class="cls-1" d="M563.4,426.87h8v57.25h-8Z"/><path class="cls-1" d="M593.09,426.87H601l25.46,37.22c2.11,3.08,4.79,8.27,4.79,8.27h.16s-.57-5.11-.57-8.27V426.87h8v57.25H631L605.49,447c-2.11-3.16-4.79-8.35-4.79-8.35h-.16s.57,5.11.57,8.35v37.14h-8Z"/><path class="cls-1" d="M660.57,426.87h33.25v7H668.6v17.92h20.52v7H668.6v18.41h26.6v7H660.57Z"/><path class="cls-1" d="M713.13,426.87h33.25v7H721.15v17.92h20.52v7H721.15v18.41h26.6v7H713.13Z"/><path class="cls-1" d="M765.68,426.87H783.2c6,0,8.51.49,10.7,1.3,5.84,2.19,9.65,7.95,9.65,15.49,0,7.3-4.05,13.46-10.3,15.49v.16a16.76,16.76,0,0,1,1.7,2.6l12.16,22.22H798L786,461.33H773.71v22.79h-8Zm19.54,27.49c6.24,0,10.14-4,10.14-10.38,0-4.21-1.62-7.22-4.54-8.84-1.54-.81-3.41-1.3-7.87-1.3h-9.24v20.52Z"/><path class="cls-1" d="M823.92,471.47s6.08,6.17,14.6,6.17c5.35,0,9.89-3,9.89-8.43,0-12.41-27.73-9.73-27.73-27.33,0-8.92,7.7-16,18.49-16,10.62,0,16.22,5.75,16.22,5.75l-3.65,6.65a20.18,20.18,0,0,0-12.57-4.95c-6.08,0-10.38,3.81-10.38,8.36,0,11.84,27.73,8.68,27.73,27.25,0,8.84-6.81,16.13-18.16,16.13a26.79,26.79,0,0,1-19-7.54Z"/><path class="cls-2" d="M908.24,116.94l68.58,25.79q7.92,2.9,11.2,6.38a13.09,13.09,0,0,1,3.57,9.37,15.49,15.49,0,0,1-3.57,10,13.72,13.72,0,0,1-11.11,5.5q-3.77,0-11-2.9l-98.53-39.12q-7-2.71-9.37-5.7a15.07,15.07,0,0,1-3.09-9.56q0-9.76,10.33-13.91L965.91,62.84q7.15-2.9,11.11-2.9,7.53,0,12,6.86a15.32,15.32,0,0,1,2.61,8.6A13.09,13.09,0,0,1,988,84.77q-3.29,3.48-11.2,6.38Z"/><path class="cls-1" d="M857.78,57,789.2,31.2q-7.92-2.9-11.2-6.38a13.09,13.09,0,0,1-3.57-9.37A15.49,15.49,0,0,1,778,5.5,13.72,13.72,0,0,1,789.1,0q3.77,0,11,2.9L898.64,42q7,2.71,9.37,5.7a15.07,15.07,0,0,1,3.09,9.56q0,9.76-10.33,13.91L800.12,111.08Q793,114,789,114q-7.53,0-12-6.86a15.32,15.32,0,0,1-2.61-8.6A13.09,13.09,0,0,1,778,89.15q3.29-3.48,11.2-6.38Z"/></g></g></svg>